<?xml version="1.0" standalone="no"?>
<!DOCTYPE svg PUBLIC "-//W3C//DTD SVG 20010904//EN"
 "http://www.w3.org/TR/2001/REC-SVG-20010904/DTD/svg10.dtd">
<svg version="1.0" xmlns="http://www.w3.org/2000/svg"
 width="2000.000000pt" height="2000.000000pt" viewBox="0 0 2000.000000 2000.000000"
 preserveAspectRatio="xMidYMid meet">
<metadata>
Created by potrace 1.14, written by Peter Selinger 2001-2017
</metadata>
<g transform="translate(0.000000,2000.000000) scale(0.100000,-0.100000)"
fill="#ffffff" stroke="none">
<path d="M9550 18533 c-563 -27 -1198 -158 -1735 -358 -1835 -684 -3227 -2260
-3664 -4150 -108 -464 -154 -872 -154 -1355 1 -591 75 -1112 239 -1666 384
-1306 1226 -2447 2370 -3211 795 -532 1678 -850 2649 -954 244 -26 714 -36
955 -20 1049 68 2011 387 2860 945 1099 724 1928 1792 2342 3016 213 630 308
1216 308 1895 0 523 -54 965 -177 1450 -218 860 -620 1642 -1203 2335 -144
172 -536 564 -705 704 -990 825 -2146 1286 -3425 1366 -150 9 -499 11 -660 3z
m765 -273 c1180 -101 2230 -533 3150 -1296 162 -135 527 -498 667 -664 475
-564 815 -1168 1043 -1855 186 -558 270 -1054 282 -1655 9 -485 -31 -903 -129
-1339 -197 -880 -589 -1672 -1178 -2382 -134 -160 -529 -555 -689 -689 -810
-672 -1736 -1090 -2756 -1245 -308 -46 -486 -59 -845 -59 -347 0 -525 12 -820
55 -1245 180 -2394 781 -3263 1706 -882 940 -1398 2107 -1503 3398 -20 247
-14 777 11 1010 128 1193 592 2251 1379 3143 138 156 442 452 596 581 275 230
559 425 890 613 107 61 402 203 543 262 624 260 1208 389 1937 430 107 6 556
-3 685 -14z"/>
<path d="M10545 15924 c-173 -38 -233 -60 -335 -120 -77 -45 -198 -158 -255
-239 -78 -110 -116 -206 -315 -785 -169 -491 -271 -785 -433 -1242 -17 -49
-33 -88 -37 -88 -3 0 -78 89 -166 197 -176 218 -298 347 -419 443 -313 248
-655 386 -1063 430 -146 16 -489 8 -642 -15 -148 -22 -348 -73 -475 -120 -545
-203 -1062 -738 -1279 -1326 -164 -446 -188 -1023 -61 -1466 95 -330 257 -585
576 -902 331 -329 637 -514 1012 -610 328 -85 752 -88 1092 -9 409 95 815 335
1167 690 147 148 194 224 339 545 246 547 815 2141 1318 3695 213 659 291 911
285 917 -7 7 -281 11 -309 5z m-2990 -2230 c418 -72 780 -352 982 -759 111
-223 163 -440 163 -681 0 -227 -48 -416 -161 -633 -221 -427 -592 -718 -1014
-796 -123 -23 -375 -16 -529 14 -628 126 -1063 532 -1187 1109 -30 142 -37
402 -14 547 91 587 547 1055 1152 1185 197 42 419 47 608 14z"/>
<path d="M12360 15223 c-535 -55 -978 -273 -1416 -695 -196 -190 -236 -250
-377 -574 -216 -495 -456 -1140 -852 -2284 -299 -868 -774 -2334 -760 -2348 4
-4 73 -7 153 -6 176 0 278 22 416 88 192 91 346 255 432 458 21 51 505 1437
641 1836 19 56 38 102 41 102 4 -1 21 -18 37 -39 116 -150 293 -360 365 -434
257 -268 569 -450 928 -543 193 -49 343 -67 572 -66 566 1 1030 152 1410 459
158 128 366 358 490 543 265 394 383 794 383 1300 0 382 -59 663 -195 934
-103 206 -223 363 -457 596 -344 343 -627 515 -1018 616 -191 49 -329 64 -561
62 -108 0 -213 -3 -232 -5z m405 -807 c596 -109 1027 -454 1190 -951 55 -168
69 -264 69 -480 1 -158 -3 -218 -17 -285 -44 -204 -123 -387 -234 -543 -77
-108 -237 -267 -348 -345 -436 -308 -1045 -370 -1501 -153 -150 72 -246 141
-375 270 -173 174 -285 356 -363 592 -128 385 -104 733 74 1089 221 441 621
751 1056 820 80 12 351 4 449 -14z"/>
<path d="M16812 5645 c-35 -8 -100 -32 -145 -54 -353 -171 -522 -606 -391
-1000 40 -122 99 -216 194 -311 140 -141 302 -210 491 -210 214 0 407 91 543
256 49 59 113 162 104 168 -1 2 -41 23 -88 48 -47 25 -106 57 -131 72 l-46 26
-38 -56 c-47 -68 -103 -115 -181 -151 -52 -25 -71 -28 -159 -28 -91 0 -106 3
-166 31 -186 88 -284 279 -258 499 18 149 122 295 256 358 62 29 77 32 163 32
75 -1 107 -5 153 -24 61 -24 163 -110 194 -162 10 -16 22 -29 27 -29 5 0 67
32 137 72 l129 71 -28 51 c-35 66 -190 221 -264 264 -100 59 -189 84 -318 88
-77 2 -136 -1 -178 -11z"/>
<path d="M4482 4863 l3 -788 563 -3 562 -2 0 145 0 145 -407 2 -408 3 -3 168
-2 167 330 0 330 0 0 155 0 155 -330 0 -330 0 0 175 0 175 375 0 375 0 0 145
0 145 -530 0 -530 0 2 -787z"/>
<path d="M6410 4860 l0 -790 155 0 155 0 0 315 0 315 330 0 330 0 0 155 0 155
-330 0 -330 0 0 175 0 175 375 0 375 0 0 145 0 145 -530 0 -530 0 0 -790z"/>
<path d="M8230 4860 l0 -790 560 0 560 0 0 145 0 145 -405 0 -405 0 0 170 0
170 330 0 331 0 -3 153 -3 152 -327 3 -328 2 0 175 0 175 370 0 370 0 0 145 0
145 -525 0 -525 0 0 -790z"/>
<path d="M12230 4860 l0 -790 560 0 560 0 0 145 0 145 -405 0 -405 0 0 170 0
170 330 0 331 0 -3 153 -3 152 -327 3 -328 2 0 175 0 175 375 0 375 0 0 145 0
145 -530 0 -530 0 0 -790z"/>
<path d="M14160 4860 l0 -790 140 0 140 0 2 541 3 540 364 -540 365 -541 133
0 133 0 0 790 0 791 -132 -3 -133 -3 -5 -482 -5 -481 -318 484 -319 484 -184
0 -184 0 0 -790z"/>
<path d="M18390 4860 l0 -790 560 0 560 0 0 145 0 145 -407 2 -408 3 -3 168
-2 167 330 0 330 0 0 155 0 155 -330 0 -330 0 0 175 0 175 375 0 375 0 0 145
0 145 -525 0 -525 0 0 -790z"/>
<path d="M480 4855 l0 -785 160 0 160 0 0 279 0 278 218 6 c154 4 234 10 276
21 213 59 336 236 336 486 0 196 -81 357 -218 438 -99 57 -141 62 -554 62
l-378 0 0 -785z m701 504 c53 -18 99 -58 120 -103 25 -56 25 -176 0 -231 -44
-95 -98 -115 -328 -122 l-173 -6 0 237 0 236 174 0 c103 0 187 -5 207 -11z"/>
<path d="M2440 4855 l0 -785 165 0 165 0 0 280 0 280 78 0 77 0 180 -280 179
-280 194 0 194 0 -18 28 c-10 15 -100 146 -201 292 l-184 264 34 12 c124 43
219 143 268 280 30 84 37 248 15 334 -37 142 -108 241 -214 298 -110 59 -138
62 -554 62 l-378 0 0 -785z m721 500 c60 -21 97 -60 114 -119 41 -136 -2 -263
-104 -309 -40 -18 -71 -22 -223 -25 l-178 -4 0 236 0 236 174 0 c131 0 184 -4
217 -15z"/>
<path d="M10190 4855 l0 -785 160 0 160 0 0 280 0 280 79 0 79 0 179 -277 179
-278 197 -3 196 -2 -195 281 c-107 154 -197 286 -199 292 -3 7 24 25 62 42
164 73 258 242 256 460 -1 248 -125 424 -338 480 -48 12 -130 15 -437 15
l-378 0 0 -785z m751 483 c59 -35 82 -80 87 -176 7 -128 -25 -194 -117 -235
-40 -18 -71 -22 -223 -25 l-178 -4 0 237 0 237 193 -4 c188 -3 193 -4 238 -30z"/>
<path d="M10808 3110 c-138 -25 -242 -77 -320 -160 -84 -90 -126 -215 -114
-347 8 -99 38 -173 97 -237 72 -78 168 -125 399 -191 287 -82 349 -123 358
-231 11 -132 -111 -212 -308 -201 -150 8 -240 68 -276 182 l-16 51 -132 23
c-72 12 -142 25 -155 28 -23 6 -24 5 -17 -53 31 -257 167 -414 416 -481 91
-25 319 -24 410 1 107 29 190 74 253 137 176 177 185 486 17 649 -69 68 -165
113 -335 160 -292 80 -363 110 -389 165 -38 80 -5 172 79 214 43 23 62 26 145
26 80 0 103 -4 143 -24 52 -25 101 -83 112 -131 7 -32 1 -30 165 -55 58 -9
115 -18 128 -21 20 -4 22 -1 22 39 0 57 -24 145 -56 209 -54 106 -177 195
-322 233 -75 19 -238 27 -304 15z"/>
<path d="M12712 3106 c-250 -48 -412 -232 -412 -466 0 -171 79 -294 237 -373
75 -38 134 -58 327 -111 214 -60 296 -120 296 -219 0 -128 -122 -205 -309
-195 -160 9 -258 79 -285 203 l-7 30 -151 27 c-84 15 -154 25 -157 22 -9 -9
18 -159 39 -217 83 -220 325 -350 625 -334 61 4 137 14 170 22 214 58 348 201
377 405 22 151 -19 286 -115 381 -71 70 -177 118 -387 174 -209 56 -313 102
-336 147 -21 41 -15 129 13 166 11 15 40 38 64 52 39 22 56 25 144 25 85 0
107 -4 148 -24 52 -25 87 -66 108 -123 14 -41 8 -39 164 -63 55 -8 113 -18
129 -21 l29 -6 -7 67 c-22 215 -153 362 -375 420 -88 23 -240 28 -329 11z"/>
<path d="M6200 2295 l0 -785 160 0 160 0 0 279 0 279 228 4 c198 4 235 7 292
26 132 44 234 144 280 274 28 79 38 241 20 330 -26 137 -110 259 -218 316
-107 57 -148 62 -554 62 l-368 0 0 -785z m698 500 c108 -32 147 -99 140 -238
-6 -109 -29 -149 -107 -186 -53 -24 -67 -26 -233 -29 l-178 -4 0 236 0 236
163 0 c117 0 178 -4 215 -15z"/>
<path d="M8359 2304 c-178 -427 -326 -780 -327 -785 -2 -6 57 -8 143 -7 l146
3 74 170 74 170 364 3 365 2 70 -172 71 -173 155 -3 c148 -2 155 -2 148 16 -4
10 -149 364 -322 785 l-315 767 -161 0 -160 0 -325 -776z m603 188 c59 -152
110 -285 113 -294 7 -17 -8 -18 -230 -18 -186 0 -236 3 -232 13 151 378 232
577 236 577 3 0 54 -125 113 -278z"/>
</g>
</svg>
