<?xml version="1.0" standalone="no"?>
<!DOCTYPE svg PUBLIC "-//W3C//DTD SVG 20010904//EN"
 "http://www.w3.org/TR/2001/REC-SVG-20010904/DTD/svg10.dtd">
<svg version="1.0" xmlns="http://www.w3.org/2000/svg"
 width="1174.000000pt" height="1174.000000pt" viewBox="0 0 1174.000000 1174.000000"
 preserveAspectRatio="xMidYMid meet">
<g transform="translate(0.000000,1174.000000) scale(0.100000,-0.100000)"
fill="#ffffff" stroke="none">
<path d="M5560 11733 c-563 -27 -1198 -158 -1735 -358 -1835 -684 -3227 -2260
-3664 -4150 -108 -464 -154 -872 -154 -1355 1 -591 75 -1112 239 -1666 384
-1306 1226 -2447 2370 -3211 795 -532 1678 -850 2649 -954 244 -26 714 -36
955 -20 1049 68 2011 387 2860 945 1099 724 1928 1792 2342 3016 213 630 308
1216 308 1895 0 523 -54 965 -177 1450 -218 860 -620 1642 -1203 2335 -144
172 -536 564 -705 704 -990 825 -2146 1286 -3425 1366 -150 9 -499 11 -660 3z
m765 -273 c1180 -101 2230 -533 3150 -1296 162 -135 527 -498 667 -664 475
-564 815 -1168 1043 -1855 186 -558 270 -1054 282 -1655 9 -485 -31 -903 -129
-1339 -197 -880 -589 -1672 -1178 -2382 -134 -160 -529 -555 -689 -689 -810
-672 -1736 -1090 -2756 -1245 -308 -46 -486 -59 -845 -59 -347 0 -525 12 -820
55 -1245 180 -2394 781 -3263 1706 -882 940 -1398 2107 -1503 3398 -20 247
-14 777 11 1010 128 1193 592 2251 1379 3143 138 156 442 452 596 581 275 230
559 425 890 613 107 61 402 203 543 262 624 260 1208 389 1937 430 107 6 556
-3 685 -14z"/>
<path d="M6555 9124 c-173 -38 -233 -60 -335 -120 -77 -45 -198 -158 -255
-239 -78 -110 -116 -206 -315 -785 -169 -491 -271 -785 -433 -1242 -17 -49
-33 -88 -37 -88 -3 0 -78 89 -166 197 -176 218 -298 347 -419 443 -313 248
-655 386 -1063 430 -146 16 -489 8 -642 -15 -148 -22 -348 -73 -475 -120 -545
-203 -1062 -738 -1279 -1326 -164 -446 -188 -1023 -61 -1466 95 -330 257 -585
576 -902 331 -329 637 -514 1012 -610 328 -85 752 -88 1092 -9 409 95 815 335
1167 690 147 148 194 224 339 545 246 547 815 2141 1318 3695 213 659 291 911
285 917 -7 7 -281 11 -309 5z m-2990 -2230 c418 -72 780 -352 982 -759 111
-223 163 -440 163 -681 0 -227 -48 -416 -161 -633 -221 -427 -592 -718 -1014
-796 -123 -23 -375 -16 -529 14 -628 126 -1063 532 -1187 1109 -30 142 -37
402 -14 547 91 587 547 1055 1152 1185 197 42 419 47 608 14z"/>
<path d="M8370 8423 c-535 -55 -978 -273 -1416 -695 -196 -190 -236 -250 -377
-574 -216 -495 -456 -1140 -852 -2284 -299 -868 -774 -2334 -760 -2348 4 -4
73 -7 153 -6 176 0 278 22 416 88 192 91 346 255 432 458 21 51 505 1437 641
1836 19 56 38 102 41 102 4 -1 21 -18 37 -39 116 -150 293 -360 365 -434 257
-268 569 -450 928 -543 193 -49 343 -67 572 -66 566 1 1030 152 1410 459 158
128 366 358 490 543 265 394 383 794 383 1300 0 382 -59 663 -195 934 -103
206 -223 363 -457 596 -344 343 -627 515 -1018 616 -191 49 -329 64 -561 62
-108 0 -213 -3 -232 -5z m405 -807 c596 -109 1027 -454 1190 -951 55 -168 69
-264 69 -480 1 -158 -3 -218 -17 -285 -44 -204 -123 -387 -234 -543 -77 -108
-237 -267 -348 -345 -436 -308 -1045 -370 -1501 -153 -150 72 -246 141 -375
270 -173 174 -285 356 -363 592 -128 385 -104 733 74 1089 221 441 621 751
1056 820 80 12 351 4 449 -14z"/>
</g>
</svg>
